<svg width="21" height="21" viewBox="0 0 21 21" fill="none" xmlns="http://www.w3.org/2000/svg">
<path d="M15.1167 15.1167C13.6922 16.2025 11.9576 16.8041 10.1667 16.8333C4.33333 16.8333 1 10.1667 1 10.1667C2.03657 8.23491 3.47428 6.54717 5.21667 5.21667M8.41667 3.7C8.99028 3.56573 9.57755 3.49862 10.1667 3.5C16 3.5 19.3333 10.1667 19.3333 10.1667C18.8275 11.113 18.2242 12.0039 17.5333 12.825M11.9333 11.9333C11.7045 12.179 11.4285 12.376 11.1218 12.5126C10.8151 12.6492 10.4841 12.7227 10.1484 12.7286C9.81273 12.7346 9.4793 12.6728 9.16801 12.5471C8.85671 12.4213 8.57393 12.2342 8.33654 11.9968C8.09914 11.7594 7.91199 11.4766 7.78626 11.1653C7.66052 10.854 7.59877 10.5206 7.60469 10.1849C7.61062 9.84925 7.68409 9.5182 7.82073 9.21154C7.95737 8.90487 8.15438 8.62887 8.4 8.4M1 1L19.3333 19.3333" stroke="black" stroke-opacity="0.5" stroke-width="2" stroke-linecap="round" stroke-linejoin="round"/>
</svg>
