<svg width="223" height="28" viewBox="0 0 223 28" fill="none" xmlns="http://www.w3.org/2000/svg">
<path d="M14.4141 17.4492C14.1797 17.4492 13.9805 17.3672 13.8164 17.2031C13.6523 17.0391 13.5703 16.8398 13.5703 16.6055V17.3203C13.5703 17.5547 13.4844 17.7578 13.3125 17.9297C13.1484 18.0938 12.9492 18.1758 12.7148 18.1758C12.4805 18.1758 12.2812 18.0938 12.1172 17.9297C11.9531 17.7578 11.8711 17.5547 11.8711 17.3203V18.0469C11.8711 18.2812 11.7852 18.4805 11.6133 18.6445C11.4492 18.8086 11.2539 18.8906 11.0273 18.8906C10.793 18.8906 10.5898 18.8086 10.418 18.6445C10.2539 18.4805 10.1719 18.2812 10.1719 18.0469V18.7617C10.1719 18.9883 10.0898 19.1875 9.92578 19.3594C9.76172 19.5234 9.5625 19.6055 9.32812 19.6055C9.09375 19.6055 8.89062 19.5234 8.71875 19.3594C8.55469 19.1875 8.47266 18.9883 8.47266 18.7617V19.4766C8.47266 19.7109 8.39062 19.9141 8.22656 20.0859C8.0625 20.25 7.86328 20.332 7.62891 20.332C7.39453 20.332 7.19531 20.25 7.03125 20.0859C6.86719 19.9141 6.78516 19.7109 6.78516 19.4766V20.2031C6.78516 20.4297 6.69922 20.6289 6.52734 20.8008C6.36328 20.9648 6.16406 21.0469 5.92969 21.0469C5.70312 21.0469 5.50391 20.9648 5.33203 20.8008C5.16797 20.6289 5.08594 20.4297 5.08594 20.2031V20.918C5.08594 21.1523 5.00391 21.3516 4.83984 21.5156C4.67578 21.6797 4.47656 21.7617 4.24219 21.7617C4.00781 21.7617 3.80469 21.6797 3.63281 21.5156C3.46875 21.3516 3.38672 21.1523 3.38672 20.918V21.6328C3.38672 21.8672 3.30469 22.0703 3.14062 22.2422C2.97656 22.4062 2.77734 22.4883 2.54297 22.4883C2.30859 22.4883 2.10938 22.4062 1.94531 22.2422C1.78125 22.0703 1.69922 21.8672 1.69922 21.6328V22.3594C1.69922 22.5938 1.61328 22.793 1.44141 22.957C1.27734 23.1211 1.07812 23.2031 0.84375 23.2031C0.617188 23.2031 0.417969 23.1211 0.246094 22.957C0.0820312 22.793 0 22.5938 0 22.3594V18.1523C0 17.918 0.0820312 17.7188 0.246094 17.5547C0.417969 17.3906 0.617188 17.3086 0.84375 17.3086C1.07812 17.3086 1.27734 17.3906 1.44141 17.5547C1.61328 17.7188 1.69922 17.918 1.69922 18.1523V17.4375C1.69922 17.2031 1.78125 17.0039 1.94531 16.8398C2.10938 16.668 2.30859 16.582 2.54297 16.582C2.77734 16.582 2.97656 16.668 3.14062 16.8398C3.30469 17.0039 3.38672 17.2031 3.38672 17.4375V16.7109C3.38672 16.4844 3.46875 16.2891 3.63281 16.125C3.80469 15.9531 4.00781 15.8672 4.24219 15.8672C4.47656 15.8672 4.67578 15.9531 4.83984 16.125C5.00391 16.2891 5.08594 16.4844 5.08594 16.7109V15.9961C5.08594 15.7617 5.16797 15.5625 5.33203 15.3984C5.50391 15.2266 5.70312 15.1406 5.92969 15.1406C6.16406 15.1406 6.36328 15.2266 6.52734 15.3984C6.69922 15.5625 6.78516 15.7617 6.78516 15.9961V15.2695C6.78516 15.043 6.86719 14.8477 7.03125 14.6836C7.19531 14.5117 7.39453 14.4258 7.62891 14.4258C7.86328 14.4258 8.0625 14.5117 8.22656 14.6836C8.39062 14.8477 8.47266 15.043 8.47266 15.2695V14.5547C8.47266 14.3203 8.55469 14.1211 8.71875 13.957C8.89062 13.793 9.09375 13.7109 9.32812 13.7109C9.5625 13.7109 9.76172 13.793 9.92578 13.957C10.0898 14.1211 10.1719 14.3203 10.1719 14.5547V11.4961C10.1719 11.7305 10.0898 11.9297 9.92578 12.0938C9.76172 12.2578 9.5625 12.3398 9.32812 12.3398C9.09375 12.3398 8.89062 12.2578 8.71875 12.0938C8.55469 11.9297 8.47266 11.7305 8.47266 11.4961V10.7812C8.47266 11.0078 8.39062 11.207 8.22656 11.3789C8.0625 11.543 7.86328 11.625 7.62891 11.625C7.39453 11.625 7.19531 11.543 7.03125 11.3789C6.86719 11.207 6.78516 11.0078 6.78516 10.7812V10.0547C6.78516 10.2891 6.69922 10.4922 6.52734 10.6641C6.36328 10.8281 6.16406 10.9102 5.92969 10.9102C5.70312 10.9102 5.50391 10.8281 5.33203 10.6641C5.16797 10.4922 5.08594 10.2891 5.08594 10.0547V9.33984C5.08594 9.56641 5.00391 9.76562 4.83984 9.9375C4.67578 10.1016 4.47656 10.1836 4.24219 10.1836C4.00781 10.1836 3.80469 10.1016 3.63281 9.9375C3.46875 9.76562 3.38672 9.56641 3.38672 9.33984V8.61328C3.38672 8.84766 3.30469 9.05078 3.14062 9.22266C2.97656 9.38672 2.77734 9.46875 2.54297 9.46875C2.30859 9.46875 2.10938 9.38672 1.94531 9.22266C1.78125 9.05078 1.69922 8.84766 1.69922 8.61328V7.89844C1.69922 8.13281 1.61328 8.33203 1.44141 8.49609C1.27734 8.66016 1.07812 8.74219 0.84375 8.74219C0.617188 8.74219 0.417969 8.66016 0.246094 8.49609C0.0820312 8.33203 0 8.13281 0 7.89844V3.69141C0 3.45703 0.0820312 3.25781 0.246094 3.09375C0.417969 2.92969 0.617188 2.84766 0.84375 2.84766C1.07812 2.84766 1.27734 2.92969 1.44141 3.09375C1.61328 3.25781 1.69922 3.45703 1.69922 3.69141V4.41797C1.69922 4.18359 1.78125 3.98438 1.94531 3.82031C2.10938 3.64844 2.30859 3.5625 2.54297 3.5625C2.77734 3.5625 2.97656 3.64844 3.14062 3.82031C3.30469 3.98438 3.38672 4.18359 3.38672 4.41797V5.13281C3.38672 4.89844 3.46875 4.69922 3.63281 4.53516C3.80469 4.37109 4.00781 4.28906 4.24219 4.28906C4.47656 4.28906 4.67578 4.37109 4.83984 4.53516C5.00391 4.69922 5.08594 4.89844 5.08594 5.13281V5.84766C5.08594 5.62109 5.16797 5.42578 5.33203 5.26172C5.50391 5.08984 5.70312 5.00391 5.92969 5.00391C6.16406 5.00391 6.36328 5.08984 6.52734 5.26172C6.69922 5.42578 6.78516 5.62109 6.78516 5.84766V6.57422C6.78516 6.33984 6.86719 6.14062 7.03125 5.97656C7.19531 5.80469 7.39453 5.71875 7.62891 5.71875C7.86328 5.71875 8.0625 5.80469 8.22656 5.97656C8.39062 6.14062 8.47266 6.33984 8.47266 6.57422V7.28906C8.47266 7.0625 8.55469 6.86719 8.71875 6.70312C8.89062 6.53125 9.09375 6.44531 9.32812 6.44531C9.5625 6.44531 9.76172 6.53125 9.92578 6.70312C10.0898 6.86719 10.1719 7.0625 10.1719 7.28906V8.00391C10.1719 7.76953 10.2539 7.57031 10.418 7.40625C10.5898 7.24219 10.793 7.16016 11.0273 7.16016C11.2539 7.16016 11.4492 7.24219 11.6133 7.40625C11.7852 7.57031 11.8711 7.76953 11.8711 8.00391V8.73047C11.8711 8.49609 11.9531 8.29688 12.1172 8.13281C12.2812 7.96875 12.4805 7.88672 12.7148 7.88672C12.9492 7.88672 13.1484 7.96875 13.3125 8.13281C13.4844 8.29688 13.5703 8.49609 13.5703 8.73047V9.44531C13.5703 9.21875 13.6523 9.02344 13.8164 8.85938C13.9805 8.6875 14.1797 8.60156 14.4141 8.60156C14.6484 8.60156 14.8477 8.6875 15.0117 8.85938C15.1758 9.02344 15.2578 9.21875 15.2578 9.44531V10.1602C15.2578 9.92578 15.3398 9.72656 15.5039 9.5625C15.6758 9.39844 15.8789 9.31641 16.1133 9.31641C16.3398 9.31641 16.5352 9.39844 16.6992 9.5625C16.8711 9.72656 16.957 9.92578 16.957 10.1602V10.8516C16.957 10.6172 17.0391 10.418 17.2031 10.2539C17.3672 10.0898 17.5664 10.0078 17.8008 10.0078C18.0352 10.0078 18.2344 10.0898 18.3984 10.2539C18.5703 10.418 18.6562 10.6172 18.6562 10.8516V15.1992C18.6562 15.4336 18.5703 15.6367 18.3984 15.8086C18.2344 15.9727 18.0352 16.0547 17.8008 16.0547C17.5664 16.0547 17.3672 15.9727 17.2031 15.8086C17.0391 15.6367 16.957 15.4336 16.957 15.1992V15.8906C16.957 16.125 16.8711 16.3242 16.6992 16.4883C16.5352 16.6523 16.3398 16.7344 16.1133 16.7344C15.8789 16.7344 15.6758 16.6523 15.5039 16.4883C15.3398 16.3242 15.2578 16.125 15.2578 15.8906V16.6055C15.2578 16.8398 15.1758 17.0391 15.0117 17.2031C14.8477 17.3672 14.6484 17.4492 14.4141 17.4492ZM26.5195 25.9688C26.2852 25.9688 26.082 25.8867 25.9102 25.7227C25.7461 25.5508 25.6641 25.3477 25.6641 25.1133V23.6602C25.6641 23.8945 25.5781 24.0977 25.4062 24.2695C25.2422 24.4336 25.043 24.5156 24.8086 24.5156C24.5742 24.5156 24.3711 24.4336 24.1992 24.2695C24.0352 24.0977 23.9531 23.8945 23.9531 23.6602V12.8438C23.9531 13.0781 23.8672 13.2812 23.6953 13.4531C23.5312 13.6172 23.332 13.6992 23.0977 13.6992C22.8633 13.6992 22.6602 13.6172 22.4883 13.4531C22.3242 13.2812 22.2422 13.0781 22.2422 12.8438V11.7188C22.2422 11.9531 22.1562 12.1562 21.9844 12.3281C21.8203 12.4922 21.6211 12.5742 21.3867 12.5742C21.1523 12.5742 20.9492 12.4922 20.7773 12.3281C20.6133 12.1562 20.5312 11.9531 20.5312 11.7188V10.2891C20.5312 10.0547 20.6133 9.85547 20.7773 9.69141C20.9492 9.51953 21.1523 9.43359 21.3867 9.43359C21.6211 9.43359 21.8203 9.51953 21.9844 9.69141C22.1562 9.85547 22.2422 10.0547 22.2422 10.2891C22.2422 10.0547 22.3242 9.85547 22.4883 9.69141C22.6602 9.51953 22.8633 9.43359 23.0977 9.43359C23.332 9.43359 23.5312 9.51953 23.6953 9.69141C23.8672 9.85547 23.9531 10.0547 23.9531 10.2891C23.9531 10.0547 24.0352 9.85547 24.1992 9.69141C24.3711 9.51953 24.5742 9.43359 24.8086 9.43359C25.043 9.43359 25.2422 9.51953 25.4062 9.69141C25.5781 9.85547 25.6641 10.0547 25.6641 10.2891C25.6641 10.0547 25.7461 9.85547 25.9102 9.69141C26.082 9.51953 26.2852 9.43359 26.5195 9.43359C26.7539 9.43359 26.9531 9.51953 27.1172 9.69141C27.2891 9.85547 27.375 10.0547 27.375 10.2891C27.375 10.0547 27.457 9.85547 27.6211 9.69141C27.7852 9.51953 27.9883 9.43359 28.2305 9.43359C28.4648 9.43359 28.6641 9.51953 28.8281 9.69141C28.9922 9.85547 29.0742 10.0547 29.0742 10.2891C29.0742 10.0547 29.1562 9.85547 29.3203 9.69141C29.4922 9.51953 29.6953 9.43359 29.9297 9.43359C30.1719 9.43359 30.375 9.51953 30.5391 9.69141C30.7031 9.85547 30.7852 10.0547 30.7852 10.2891C30.7852 10.0547 30.8672 9.85547 31.0312 9.69141C31.2031 9.51953 31.4062 9.43359 31.6406 9.43359C31.875 9.43359 32.0742 9.51953 32.2383 9.69141C32.4102 9.85547 32.4961 10.0547 32.4961 10.2891C32.4961 10.0547 32.5781 9.85547 32.7422 9.69141C32.9141 9.51953 33.1172 9.43359 33.3516 9.43359C33.5859 9.43359 33.7852 9.51953 33.9492 9.69141C34.1211 9.85547 34.207 10.0547 34.207 10.2891C34.207 10.0547 34.2891 9.85547 34.4531 9.69141C34.625 9.51953 34.8281 9.43359 35.0625 9.43359C35.2969 9.43359 35.4961 9.51953 35.6602 9.69141C35.832 9.85547 35.918 10.0547 35.918 10.2891V11.3203C35.918 11.0859 36 10.8867 36.1641 10.7227C36.3359 10.5508 36.5391 10.4648 36.7734 10.4648C37.0078 10.4648 37.207 10.5508 37.3711 10.7227C37.543 10.8867 37.6289 11.0859 37.6289 11.3203V12.7852C37.6289 12.5508 37.7109 12.3516 37.875 12.1875C38.0469 12.0156 38.25 11.9297 38.4844 11.9297C38.7188 11.9297 38.918 12.0156 39.082 12.1875C39.2539 12.3516 39.3398 12.5508 39.3398 12.7852V17.2266C39.3398 17.4609 39.2539 17.6641 39.082 17.8359C38.918 18 38.7188 18.082 38.4844 18.082C38.25 18.082 38.0469 18 37.875 17.8359C37.7109 17.6641 37.6289 17.4609 37.6289 17.2266V18.6797C37.6289 18.9141 37.543 19.1172 37.3711 19.2891C37.207 19.4531 37.0078 19.5352 36.7734 19.5352C36.5391 19.5352 36.3359 19.4531 36.1641 19.2891C36 19.1172 35.918 18.9141 35.918 18.6797V19.7227C35.918 19.957 35.832 20.1602 35.6602 20.332C35.4961 20.4961 35.2969 20.5781 35.0625 20.5781C34.8281 20.5781 34.625 20.4961 34.4531 20.332C34.2891 20.1602 34.207 19.957 34.207 19.7227C34.207 19.957 34.1211 20.1602 33.9492 20.332C33.7852 20.4961 33.5859 20.5781 33.3516 20.5781C33.1172 20.5781 32.9141 20.4961 32.7422 20.332C32.5781 20.1602 32.4961 19.957 32.4961 19.7227C32.4961 19.957 32.4102 20.1602 32.2383 20.332C32.0742 20.4961 31.875 20.5781 31.6406 20.5781C31.4062 20.5781 31.2031 20.4961 31.0312 20.332C30.8672 20.1602 30.7852 19.957 30.7852 19.7227C30.7852 19.957 30.7031 20.1602 30.5391 20.332C30.375 20.4961 30.1719 20.5781 29.9297 20.5781C29.6953 20.5781 29.4922 20.4961 29.3203 20.332C29.1562 20.1602 29.0742 19.957 29.0742 19.7227V22.5586C29.0742 22.3242 29.1562 22.125 29.3203 21.9609C29.4922 21.7891 29.6953 21.7031 29.9297 21.7031C30.1719 21.7031 30.375 21.7891 30.5391 21.9609C30.7031 22.125 30.7852 22.3242 30.7852 22.5586V23.5898C30.7852 23.3555 30.8672 23.1562 31.0312 22.9922C31.2031 22.8203 31.4062 22.7344 31.6406 22.7344C31.875 22.7344 32.0742 22.8203 32.2383 22.9922C32.4102 23.1562 32.4961 23.3555 32.4961 23.5898C32.4961 23.3555 32.5781 23.1562 32.7422 22.9922C32.9141 22.8203 33.1172 22.7344 33.3516 22.7344C33.5859 22.7344 33.7852 22.8203 33.9492 22.9922C34.1211 23.1562 34.207 23.3555 34.207 23.5898C34.207 23.3555 34.2891 23.1562 34.4531 22.9922C34.625 22.8203 34.8281 22.7344 35.0625 22.7344C35.2969 22.7344 35.4961 22.8203 35.6602 22.9922C35.832 23.1562 35.918 23.3555 35.918 23.5898C35.918 23.3555 36 23.1562 36.1641 22.9922C36.3359 22.8203 36.5391 22.7344 36.7734 22.7344C37.0078 22.7344 37.207 22.8203 37.3711 22.9922C37.543 23.1562 37.6289 23.3555 37.6289 23.5898V22.5586C37.6289 22.3242 37.7109 22.125 37.875 21.9609C38.0469 21.7891 38.25 21.7031 38.4844 21.7031C38.7188 21.7031 38.918 21.7891 39.082 21.9609C39.2539 22.125 39.3398 22.3242 39.3398 22.5586V25.1133C39.3398 25.3477 39.2539 25.5508 39.082 25.7227C38.918 25.8867 38.7188 25.9688 38.4844 25.9688C38.25 25.9688 38.0469 25.8867 37.875 25.7227C37.7109 25.5508 37.6289 25.3477 37.6289 25.1133V26.1445C37.6289 26.3789 37.543 26.582 37.3711 26.7539C37.207 26.918 37.0078 27 36.7734 27C36.5391 27 36.3359 26.918 36.1641 26.7539C36 26.582 35.918 26.3789 35.918 26.1445C35.918 26.3789 35.832 26.582 35.6602 26.7539C35.4961 26.918 35.2969 27 35.0625 27C34.8281 27 34.625 26.918 34.4531 26.7539C34.2891 26.582 34.207 26.3789 34.207 26.1445C34.207 26.3789 34.1211 26.582 33.9492 26.7539C33.7852 26.918 33.5859 27 33.3516 27C33.1172 27 32.9141 26.918 32.7422 26.7539C32.5781 26.582 32.4961 26.3789 32.4961 26.1445C32.4961 26.3789 32.4102 26.582 32.2383 26.7539C32.0742 26.918 31.875 27 31.6406 27C31.4062 27 31.2031 26.918 31.0312 26.7539C30.8672 26.582 30.7852 26.3789 30.7852 26.1445C30.7852 26.3789 30.7031 26.582 30.5391 26.7539C30.375 26.918 30.1719 27 29.9297 27C29.6953 27 29.4922 26.918 29.3203 26.7539C29.1562 26.582 29.0742 26.3789 29.0742 26.1445C29.0742 26.3789 28.9922 26.582 28.8281 26.7539C28.6641 26.918 28.4648 27 28.2305 27C27.9883 27 27.7852 26.918 27.6211 26.7539C27.457 26.582 27.375 26.3789 27.375 26.1445V25.1133C27.375 25.3477 27.2891 25.5508 27.1172 25.7227C26.9531 25.8867 26.7539 25.9688 26.5195 25.9688ZM29.0742 17.168C29.0742 16.9336 29.1562 16.7344 29.3203 16.5703C29.4922 16.3984 29.6953 16.3125 29.9297 16.3125C30.1641 16.3125 30.3633 16.3984 30.5273 16.5703C30.6992 16.7344 30.7852 16.9336 30.7852 17.168C30.7852 16.9336 30.8672 16.7344 31.0312 16.5703C31.2031 16.3984 31.4062 16.3125 31.6406 16.3125C31.875 16.3125 32.0742 16.3984 32.2383 16.5703C32.4102 16.7344 32.4961 16.9336 32.4961 17.168V16.1367C32.4961 15.8945 32.5781 15.6914 32.7422 15.5273C32.9141 15.3633 33.1172 15.2812 33.3516 15.2812C33.5859 15.2812 33.7852 15.3633 33.9492 15.5273C34.1211 15.6914 34.207 15.8945 34.207 16.1367V13.875C34.207 14.1094 34.1211 14.3125 33.9492 14.4844C33.7852 14.6484 33.5859 14.7305 33.3516 14.7305C33.1172 14.7305 32.9141 14.6484 32.7422 14.4844C32.5781 14.3125 32.4961 14.1094 32.4961 13.875V12.8438C32.4961 13.0781 32.4102 13.2812 32.2383 13.4531C32.0742 13.6172 31.875 13.6992 31.6406 13.6992C31.4062 13.6992 31.2031 13.6172 31.0312 13.4531C30.8672 13.2812 30.7852 13.0781 30.7852 12.8438C30.7852 13.0781 30.6992 13.2812 30.5273 13.4531C30.3633 13.6172 30.1641 13.6992 29.9297 13.6992C29.6953 13.6992 29.4922 13.6172 29.3203 13.4531C29.1562 13.2812 29.0742 13.0781 29.0742 12.8438V17.168ZM57.4688 27.0352C57.2344 27.0352 57.0312 26.9531 56.8594 26.7891C56.6953 26.625 56.6133 26.4258 56.6133 26.1914C56.6133 26.4258 56.5273 26.625 56.3555 26.7891C56.1914 26.9531 55.9922 27.0352 55.7578 27.0352C55.5234 27.0352 55.3203 26.9531 55.1484 26.7891C54.9844 26.625 54.9023 26.4258 54.9023 26.1914V13.9102C54.9023 14.1445 54.8164 14.3477 54.6445 14.5195C54.4805 14.6836 54.2812 14.7656 54.0469 14.7656C53.8125 14.7656 53.6094 14.6836 53.4375 14.5195C53.2734 14.3477 53.1914 14.1445 53.1914 13.9102V12.8789C53.1914 13.1133 53.1055 13.3164 52.9336 13.4883C52.7695 13.6523 52.5703 13.7344 52.3359 13.7344C52.1016 13.7344 51.8984 13.6523 51.7266 13.4883C51.5625 13.3164 51.4805 13.1133 51.4805 12.8789V13.9102C51.4805 14.1445 51.3984 14.3477 51.2344 14.5195C51.0703 14.6836 50.8672 14.7656 50.625 14.7656C50.3906 14.7656 50.1875 14.6836 50.0156 14.5195C49.8516 14.3477 49.7695 14.1445 49.7695 13.9102V26.1914C49.7695 26.4258 49.6875 26.625 49.5234 26.7891C49.3594 26.9531 49.1602 27.0352 48.9258 27.0352C48.6836 27.0352 48.4805 26.9531 48.3164 26.7891C48.1523 26.625 48.0703 26.4258 48.0703 26.1914C48.0703 26.4258 47.9844 26.625 47.8125 26.7891C47.6484 26.9531 47.4492 27.0352 47.2148 27.0352C46.9805 27.0352 46.7773 26.9531 46.6055 26.7891C46.4414 26.625 46.3594 26.4258 46.3594 26.1914C46.3594 26.4258 46.2734 26.625 46.1016 26.7891C45.9375 26.9531 45.7383 27.0352 45.5039 27.0352C45.2695 27.0352 45.0664 26.9531 44.8945 26.7891C44.7305 26.625 44.6484 26.4258 44.6484 26.1914C44.6484 26.4258 44.5625 26.625 44.3906 26.7891C44.2266 26.9531 44.0273 27.0352 43.793 27.0352C43.5586 27.0352 43.3555 26.9531 43.1836 26.7891C43.0195 26.625 42.9375 26.4219 42.9375 26.1797C42.9375 26.4219 42.8516 26.625 42.6797 26.7891C42.5156 26.9531 42.3164 27.0352 42.082 27.0352C41.8477 27.0352 41.6445 26.9531 41.4727 26.7891C41.3086 26.625 41.2266 26.4219 41.2266 26.1797V24.75C41.2266 24.5156 41.3086 24.3164 41.4727 24.1523C41.6445 23.9805 41.8477 23.8945 42.082 23.8945C42.3164 23.8945 42.5156 23.9805 42.6797 24.1523C42.8516 24.3164 42.9375 24.5156 42.9375 24.75V23.6367C42.9375 23.3945 43.0195 23.1914 43.1836 23.0273C43.3555 22.8633 43.5586 22.7812 43.793 22.7812C44.0273 22.7812 44.2266 22.8633 44.3906 23.0273C44.5625 23.1914 44.6484 23.3945 44.6484 23.6367V12.8789C44.6484 13.1133 44.5625 13.3164 44.3906 13.4883C44.2266 13.6523 44.0273 13.7344 43.793 13.7344C43.5586 13.7344 43.3555 13.6523 43.1836 13.4883C43.0195 13.3164 42.9375 13.1133 42.9375 12.8789V11.7539C42.9375 11.9883 42.8516 12.1914 42.6797 12.3633C42.5156 12.5273 42.3164 12.6094 42.082 12.6094C41.8477 12.6094 41.6445 12.5273 41.4727 12.3633C41.3086 12.1914 41.2266 11.9883 41.2266 11.7539V10.3242C41.2266 10.0898 41.3086 9.89062 41.4727 9.72656C41.6445 9.55469 41.8477 9.46875 42.082 9.46875C42.3164 9.46875 42.5156 9.55469 42.6797 9.72656C42.8516 9.89062 42.9375 10.0898 42.9375 10.3242C42.9375 10.0898 43.0195 9.89062 43.1836 9.72656C43.3555 9.55469 43.5586 9.46875 43.793 9.46875C44.0273 9.46875 44.2266 9.55469 44.3906 9.72656C44.5625 9.89062 44.6484 10.0898 44.6484 10.3242C44.6484 10.0898 44.7305 9.89062 44.8945 9.72656C45.0664 9.55469 45.2695 9.46875 45.5039 9.46875C45.7383 9.46875 45.9375 9.55469 46.1016 9.72656C46.2734 9.89062 46.3594 10.0898 46.3594 10.3242C46.3594 10.0898 46.4414 9.89062 46.6055 9.72656C46.7773 9.55469 46.9805 9.46875 47.2148 9.46875C47.4492 9.46875 47.6484 9.55469 47.8125 9.72656C47.9844 9.89062 48.0703 10.0898 48.0703 10.3242C48.0703 10.0898 48.1523 9.89062 48.3164 9.72656C48.4805 9.55469 48.6836 9.46875 48.9258 9.46875C49.1602 9.46875 49.3594 9.55469 49.5234 9.72656C49.6875 9.89062 49.7695 10.0898 49.7695 10.3242V11.3555C49.7695 11.1211 49.8516 10.9219 50.0156 10.7578C50.1875 10.5859 50.3906 10.5 50.625 10.5C50.8672 10.5 51.0703 10.5859 51.2344 10.7578C51.3984 10.9219 51.4805 11.1211 51.4805 11.3555V10.3242C51.4805 10.0898 51.5625 9.89062 51.7266 9.72656C51.8984 9.55469 52.1016 9.46875 52.3359 9.46875C52.5703 9.46875 52.7695 9.55469 52.9336 9.72656C53.1055 9.89062 53.1914 10.0898 53.1914 10.3242C53.1914 10.0898 53.2734 9.89062 53.4375 9.72656C53.6094 9.55469 53.8125 9.46875 54.0469 9.46875C54.2812 9.46875 54.4805 9.55469 54.6445 9.72656C54.8164 9.89062 54.9023 10.0898 54.9023 10.3242C54.9023 10.0898 54.9844 9.89062 55.1484 9.72656C55.3203 9.55469 55.5234 9.46875 55.7578 9.46875C55.9922 9.46875 56.1914 9.55469 56.3555 9.72656C56.5273 9.89062 56.6133 10.0898 56.6133 10.3242V11.3555C56.6133 11.1211 56.6953 10.9219 56.8594 10.7578C57.0312 10.5859 57.2344 10.5 57.4688 10.5C57.7031 10.5 57.9023 10.5859 58.0664 10.7578C58.2383 10.9219 58.3242 11.1211 58.3242 11.3555V12.8203C58.3242 12.5859 58.4062 12.3867 58.5703 12.2227C58.7422 12.0508 58.9453 11.9648 59.1797 11.9648C59.4141 11.9648 59.6133 12.0508 59.7773 12.2227C59.9492 12.3867 60.0352 12.5859 60.0352 12.8203V26.1914C60.0352 26.4258 59.9492 26.625 59.7773 26.7891C59.6133 26.9531 59.4141 27.0352 59.1797 27.0352C58.9453 27.0352 58.7422 26.9531 58.5703 26.7891C58.4062 26.625 58.3242 26.4258 58.3242 26.1914C58.3242 26.4258 58.2383 26.625 58.0664 26.7891C57.9023 26.9531 57.7031 27.0352 57.4688 27.0352ZM71.3203 20.0977C71.5625 20.0977 71.7656 20.1836 71.9297 20.3555C72.0938 20.5195 72.1758 20.7188 72.1758 20.9531V18.7734C72.1758 18.5391 72.2578 18.3398 72.4219 18.1758C72.5938 18.0039 72.7969 17.918 73.0312 17.918C73.2656 17.918 73.4648 18.0039 73.6289 18.1758C73.8008 18.3398 73.8867 18.5391 73.8867 18.7734V16.5938C73.8867 16.3594 73.9688 16.1602 74.1328 15.9961C74.3047 15.832 74.5078 15.75 74.7422 15.75C74.9766 15.75 75.1758 15.832 75.3398 15.9961C75.5117 16.1602 75.5977 16.3594 75.5977 16.5938V14.4258C75.5977 14.1914 75.6797 13.9922 75.8438 13.8281C76.0156 13.6562 76.2188 13.5703 76.4531 13.5703C76.6875 13.5703 76.8867 13.6562 77.0508 13.8281C77.2227 13.9922 77.3086 14.1914 77.3086 14.4258V12.2461C77.3086 12.0039 77.3906 11.8008 77.5547 11.6367C77.7266 11.4727 77.9297 11.3906 78.1641 11.3906C78.3984 11.3906 78.5977 11.4727 78.7617 11.6367C78.9336 11.8008 79.0195 12.0039 79.0195 12.2461V10.3242C79.0195 10.0898 79.1016 9.89062 79.2656 9.72656C79.4375 9.55469 79.6406 9.46875 79.875 9.46875C80.1094 9.46875 80.3086 9.55469 80.4727 9.72656C80.6445 9.89062 80.7305 10.0898 80.7305 10.3242V15.293C80.7305 15.5273 80.6445 15.7305 80.4727 15.9023C80.3086 16.0664 80.1094 16.1484 79.875 16.1484C79.6406 16.1484 79.4375 16.0664 79.2656 15.9023C79.1016 15.7305 79.0195 15.5273 79.0195 15.293V17.4727C79.0195 17.707 78.9336 17.9102 78.7617 18.082C78.5977 18.2461 78.3984 18.3281 78.1641 18.3281C77.9297 18.3281 77.7266 18.2461 77.5547 18.082C77.3906 17.9102 77.3086 17.707 77.3086 17.4727V19.6523C77.3086 19.8867 77.2227 20.0898 77.0508 20.2617C76.8867 20.4258 76.6875 20.5078 76.4531 20.5078C76.2188 20.5078 76.0156 20.4258 75.8438 20.2617C75.6797 20.0898 75.5977 19.8867 75.5977 19.6523V21.832C75.5977 22.0664 75.5117 22.2695 75.3398 22.4414C75.1758 22.6055 74.9766 22.6875 74.7422 22.6875C74.5078 22.6875 74.3047 22.6055 74.1328 22.4414C73.9688 22.2695 73.8867 22.0664 73.8867 21.832V24.0117C73.8867 24.2461 73.8008 24.4492 73.6289 24.6211C73.4648 24.7852 73.2656 24.8672 73.0312 24.8672C72.7969 24.8672 72.5938 24.7852 72.4219 24.6211C72.2578 24.4492 72.1758 24.2461 72.1758 24.0117V26.1914C72.1758 26.4258 72.0938 26.625 71.9297 26.7891C71.7656 26.9531 71.5625 27.0352 71.3203 27.0352C71.0859 27.0352 70.8828 26.9531 70.7109 26.7891C70.5469 26.625 70.4648 26.4258 70.4648 26.1914C70.4648 26.4258 70.3828 26.625 70.2188 26.7891C70.0547 26.9531 69.8555 27.0352 69.6211 27.0352C69.3789 27.0352 69.1758 26.9531 69.0117 26.7891C68.8477 26.625 68.7656 26.4258 68.7656 26.1914C68.7656 26.4258 68.6797 26.625 68.5078 26.7891C68.3438 26.9531 68.1445 27.0352 67.9102 27.0352C67.6758 27.0352 67.4727 26.9531 67.3008 26.7891C67.1367 26.625 67.0547 26.4258 67.0547 26.1914C67.0547 26.4258 66.9688 26.625 66.7969 26.7891C66.6328 26.9531 66.4336 27.0352 66.1992 27.0352C65.9648 27.0352 65.7617 26.9531 65.5898 26.7891C65.4258 26.625 65.3438 26.4258 65.3438 26.1914C65.3438 26.4258 65.2578 26.625 65.0859 26.7891C64.9219 26.9531 64.7227 27.0352 64.4883 27.0352C64.2539 27.0352 64.0508 26.9531 63.8789 26.7891C63.7148 26.625 63.6328 26.4258 63.6328 26.1914C63.6328 26.4258 63.5469 26.625 63.375 26.7891C63.2109 26.9531 63.0117 27.0352 62.7773 27.0352C62.543 27.0352 62.3398 26.9531 62.168 26.7891C62.0039 26.625 61.9219 26.4258 61.9219 26.1914V24.75C61.9219 24.5156 62.0039 24.3164 62.168 24.1523C62.3398 23.9805 62.543 23.8945 62.7773 23.8945C63.0117 23.8945 63.2109 23.9805 63.375 24.1523C63.5469 24.3164 63.6328 24.5156 63.6328 24.75V23.6367C63.6328 23.3945 63.7148 23.1914 63.8789 23.0273C64.0508 22.8633 64.2539 22.7812 64.4883 22.7812C64.7227 22.7812 64.9219 22.8633 65.0859 23.0273C65.2578 23.1914 65.3438 23.3945 65.3438 23.6367V12.8789C65.3438 13.1133 65.2578 13.3164 65.0859 13.4883C64.9219 13.6523 64.7227 13.7344 64.4883 13.7344C64.2539 13.7344 64.0508 13.6523 63.8789 13.4883C63.7148 13.3164 63.6328 13.1133 63.6328 12.8789V11.7539C63.6328 11.9883 63.5469 12.1914 63.375 12.3633C63.2109 12.5273 63.0117 12.6094 62.7773 12.6094C62.543 12.6094 62.3398 12.5273 62.168 12.3633C62.0039 12.1914 61.9219 11.9883 61.9219 11.7539V10.3242C61.9219 10.0898 62.0039 9.89062 62.168 9.72656C62.3398 9.55469 62.543 9.46875 62.7773 9.46875C63.0117 9.46875 63.2109 9.55469 63.375 9.72656C63.5469 9.89062 63.6328 10.0898 63.6328 10.3242C63.6328 10.0898 63.7148 9.89062 63.8789 9.72656C64.0508 9.55469 64.2539 9.46875 64.4883 9.46875C64.7227 9.46875 64.9219 9.55469 65.0859 9.72656C65.2578 9.89062 65.3438 10.0898 65.3438 10.3242C65.3438 10.0898 65.4258 9.89062 65.5898 9.72656C65.7617 9.55469 65.9648 9.46875 66.1992 9.46875C66.4336 9.46875 66.6328 9.55469 66.7969 9.72656C66.9688 9.89062 67.0547 10.0898 67.0547 10.3242C67.0547 10.0898 67.1367 9.89062 67.3008 9.72656C67.4727 9.55469 67.6758 9.46875 67.9102 9.46875C68.1445 9.46875 68.3438 9.55469 68.5078 9.72656C68.6797 9.89062 68.7656 10.0898 68.7656 10.3242C68.7656 10.0898 68.8477 9.89062 69.0117 9.72656C69.1758 9.55469 69.3789 9.46875 69.6211 9.46875C69.8555 9.46875 70.0547 9.55469 70.2188 9.72656C70.3828 9.89062 70.4648 10.0898 70.4648 10.3242V20.9531C70.4648 20.7188 70.5469 20.5195 70.7109 20.3555C70.8828 20.1836 71.0859 20.0977 71.3203 20.0977ZM82.6172 24.2109C82.6172 23.9766 82.6992 23.7773 82.8633 23.6133C83.0273 23.4492 83.2266 23.3672 83.4609 23.3672C83.6953 23.3672 83.8945 23.4492 84.0586 23.6133C84.2305 23.7773 84.3164 23.9766 84.3164 24.2109V22.8164C84.3164 22.582 84.3984 22.3828 84.5625 22.2188C84.7266 22.0469 84.9258 21.9609 85.1602 21.9609C85.3945 21.9609 85.5938 22.0469 85.7578 22.2188C85.9219 22.3828 86.0039 22.582 86.0039 22.8164V24.2109C86.0039 23.9766 86.0859 23.7773 86.25 23.6133C86.4219 23.4492 86.625 23.3672 86.8594 23.3672C87.0859 23.3672 87.2812 23.4492 87.4453 23.6133C87.6172 23.7773 87.7031 23.9766 87.7031 24.2109V24.8203C87.7031 25.0547 87.6172 25.2578 87.4453 25.4297C87.2812 25.5938 87.0859 25.6758 86.8594 25.6758C86.625 25.6758 86.4219 25.5938 86.25 25.4297C86.0859 25.2578 86.0039 25.0547 86.0039 24.8203V26.2031C86.0039 26.4375 85.9219 26.6367 85.7578 26.8008C85.5938 26.9648 85.3945 27.0469 85.1602 27.0469C84.9258 27.0469 84.7266 26.9648 84.5625 26.8008C84.3984 26.6367 84.3164 26.4375 84.3164 26.2031V24.8203C84.3164 25.0547 84.2305 25.2578 84.0586 25.4297C83.8945 25.5938 83.6953 25.6758 83.4609 25.6758C83.2266 25.6758 83.0273 25.5938 82.8633 25.4297C82.6992 25.2578 82.6172 25.0547 82.6172 24.8203V24.2109ZM95.5664 25.9688C95.332 25.9688 95.1289 25.8867 94.957 25.7227C94.793 25.5508 94.7109 25.3477 94.7109 25.1133V23.6602C94.7109 23.8945 94.625 24.0977 94.4531 24.2695C94.2891 24.4336 94.0898 24.5156 93.8555 24.5156C93.6211 24.5156 93.418 24.4336 93.2461 24.2695C93.082 24.0977 93 23.8945 93 23.6602V12.8438C93 13.0781 92.9141 13.2812 92.7422 13.4531C92.5781 13.6172 92.3789 13.6992 92.1445 13.6992C91.9102 13.6992 91.707 13.6172 91.5352 13.4531C91.3711 13.2812 91.2891 13.0781 91.2891 12.8438V11.7188C91.2891 11.9531 91.2031 12.1562 91.0312 12.3281C90.8672 12.4922 90.668 12.5742 90.4336 12.5742C90.1992 12.5742 89.9961 12.4922 89.8242 12.3281C89.6602 12.1562 89.5781 11.9531 89.5781 11.7188V10.2891C89.5781 10.0547 89.6602 9.85547 89.8242 9.69141C89.9961 9.51953 90.1992 9.43359 90.4336 9.43359C90.668 9.43359 90.8672 9.51953 91.0312 9.69141C91.2031 9.85547 91.2891 10.0547 91.2891 10.2891C91.2891 10.0547 91.3711 9.85547 91.5352 9.69141C91.707 9.51953 91.9102 9.43359 92.1445 9.43359C92.3789 9.43359 92.5781 9.51953 92.7422 9.69141C92.9141 9.85547 93 10.0547 93 10.2891C93 10.0547 93.082 9.85547 93.2461 9.69141C93.418 9.51953 93.6211 9.43359 93.8555 9.43359C94.0898 9.43359 94.2891 9.51953 94.4531 9.69141C94.625 9.85547 94.7109 10.0547 94.7109 10.2891C94.7109 10.0547 94.793 9.85547 94.957 9.69141C95.1289 9.51953 95.332 9.43359 95.5664 9.43359C95.8008 9.43359 96 9.51953 96.1641 9.69141C96.3359 9.85547 96.4219 10.0547 96.4219 10.2891C96.4219 10.0547 96.5039 9.85547 96.668 9.69141C96.832 9.51953 97.0352 9.43359 97.2773 9.43359C97.5117 9.43359 97.7109 9.51953 97.875 9.69141C98.0391 9.85547 98.1211 10.0547 98.1211 10.2891C98.1211 10.0547 98.2031 9.85547 98.3672 9.69141C98.5391 9.51953 98.7422 9.43359 98.9766 9.43359C99.2188 9.43359 99.4219 9.51953 99.5859 9.69141C99.75 9.85547 99.832 10.0547 99.832 10.2891C99.832 10.0547 99.9141 9.85547 100.078 9.69141C100.25 9.51953 100.453 9.43359 100.688 9.43359C100.922 9.43359 101.121 9.51953 101.285 9.69141C101.457 9.85547 101.543 10.0547 101.543 10.2891C101.543 10.0547 101.625 9.85547 101.789 9.69141C101.961 9.51953 102.164 9.43359 102.398 9.43359C102.633 9.43359 102.832 9.51953 102.996 9.69141C103.168 9.85547 103.254 10.0547 103.254 10.2891C103.254 10.0547 103.336 9.85547 103.5 9.69141C103.672 9.51953 103.875 9.43359 104.109 9.43359C104.344 9.43359 104.543 9.51953 104.707 9.69141C104.879 9.85547 104.965 10.0547 104.965 10.2891C104.965 10.0547 105.047 9.85547 105.211 9.69141C105.383 9.51953 105.586 9.43359 105.82 9.43359C106.055 9.43359 106.254 9.51953 106.418 9.69141C106.59 9.85547 106.676 10.0547 106.676 10.2891V11.3203C106.676 11.0859 106.758 10.8867 106.922 10.7227C107.094 10.5508 107.297 10.4648 107.531 10.4648C107.766 10.4648 107.965 10.5508 108.129 10.7227C108.301 10.8867 108.387 11.0859 108.387 11.3203V13.875C108.387 14.1094 108.301 14.3125 108.129 14.4844C107.965 14.6484 107.766 14.7305 107.531 14.7305C107.297 14.7305 107.094 14.6484 106.922 14.4844C106.758 14.3125 106.676 14.1094 106.676 13.875V12.8438C106.676 13.0781 106.59 13.2812 106.418 13.4531C106.254 13.6172 106.055 13.6992 105.82 13.6992C105.586 13.6992 105.383 13.6172 105.211 13.4531C105.047 13.2812 104.965 13.0781 104.965 12.8438C104.965 13.0781 104.879 13.2812 104.707 13.4531C104.543 13.6172 104.344 13.6992 104.109 13.6992C103.875 13.6992 103.672 13.6172 103.5 13.4531C103.336 13.2812 103.254 13.0781 103.254 12.8438C103.254 13.0781 103.168 13.2812 102.996 13.4531C102.832 13.6172 102.633 13.6992 102.398 13.6992C102.164 13.6992 101.961 13.6172 101.789 13.4531C101.625 13.2812 101.543 13.0781 101.543 12.8438C101.543 13.0781 101.457 13.2812 101.285 13.4531C101.121 13.6172 100.922 13.6992 100.688 13.6992C100.453 13.6992 100.25 13.6172 100.078 13.4531C99.9141 13.2812 99.832 13.0781 99.832 12.8438C99.832 13.0781 99.75 13.2812 99.5859 13.4531C99.4219 13.6172 99.2188 13.6992 98.9766 13.6992C98.7422 13.6992 98.5391 13.6172 98.3672 13.4531C98.2031 13.2812 98.1211 13.0781 98.1211 12.8438V22.5586C98.1211 22.3242 98.2031 22.125 98.3672 21.9609C98.5391 21.7891 98.7422 21.7031 98.9766 21.7031C99.2188 21.7031 99.4219 21.7891 99.5859 21.9609C99.75 22.125 99.832 22.3242 99.832 22.5586V23.5898C99.832 23.3555 99.9141 23.1562 100.078 22.9922C100.25 22.8281 100.453 22.7461 100.688 22.7461C100.922 22.7461 101.121 22.8281 101.285 22.9922C101.457 23.1562 101.543 23.3555 101.543 23.5898C101.543 23.3555 101.625 23.1562 101.789 22.9922C101.961 22.8281 102.164 22.7461 102.398 22.7461C102.633 22.7461 102.832 22.8281 102.996 22.9922C103.168 23.1562 103.254 23.3555 103.254 23.5898C103.254 23.3555 103.336 23.1562 103.5 22.9922C103.672 22.8281 103.875 22.7461 104.109 22.7461C104.344 22.7461 104.543 22.8281 104.707 22.9922C104.879 23.1562 104.965 23.3555 104.965 23.5898C104.965 23.3555 105.047 23.1562 105.211 22.9922C105.383 22.8281 105.586 22.7461 105.82 22.7461C106.055 22.7461 106.254 22.8281 106.418 22.9922C106.59 23.1562 106.676 23.3555 106.676 23.5898V22.5586C106.676 22.3242 106.758 22.125 106.922 21.9609C107.094 21.7891 107.297 21.7031 107.531 21.7031C107.766 21.7031 107.965 21.7891 108.129 21.9609C108.301 22.125 108.387 22.3242 108.387 22.5586V25.1133C108.387 25.3477 108.301 25.5508 108.129 25.7227C107.965 25.8867 107.766 25.9688 107.531 25.9688C107.297 25.9688 107.094 25.8867 106.922 25.7227C106.758 25.5508 106.676 25.3477 106.676 25.1133V26.1445C106.676 26.3867 106.59 26.5898 106.418 26.7539C106.254 26.918 106.055 27 105.82 27C105.586 27 105.383 26.918 105.211 26.7539C105.047 26.5898 104.965 26.3867 104.965 26.1445C104.965 26.3867 104.879 26.5898 104.707 26.7539C104.543 26.918 104.344 27 104.109 27C103.875 27 103.672 26.918 103.5 26.7539C103.336 26.5898 103.254 26.3867 103.254 26.1445C103.254 26.3867 103.168 26.5898 102.996 26.7539C102.832 26.918 102.633 27 102.398 27C102.164 27 101.961 26.918 101.789 26.7539C101.625 26.5898 101.543 26.3867 101.543 26.1445C101.543 26.3867 101.457 26.5898 101.285 26.7539C101.121 26.918 100.922 27 100.688 27C100.453 27 100.25 26.918 100.078 26.7539C99.9141 26.5898 99.832 26.3867 99.832 26.1445C99.832 26.3867 99.75 26.5898 99.5859 26.7539C99.4219 26.918 99.2188 27 98.9766 27C98.7422 27 98.5391 26.918 98.3672 26.7539C98.2031 26.5898 98.1211 26.3867 98.1211 26.1445C98.1211 26.3867 98.0391 26.5898 97.875 26.7539C97.7109 26.918 97.5117 27 97.2773 27C97.0352 27 96.832 26.918 96.668 26.7539C96.5039 26.5898 96.4219 26.3867 96.4219 26.1445V25.1133C96.4219 25.3477 96.3359 25.5508 96.1641 25.7227C96 25.8867 95.8008 25.9688 95.5664 25.9688ZM123.094 9.46875C123.328 9.46875 123.527 9.55469 123.691 9.72656C123.863 9.89062 123.949 10.0898 123.949 10.3242C123.949 10.0898 124.031 9.89062 124.195 9.72656C124.367 9.55469 124.57 9.46875 124.805 9.46875C125.039 9.46875 125.238 9.55469 125.402 9.72656C125.574 9.89062 125.66 10.0898 125.66 10.3242C125.66 10.0898 125.742 9.89062 125.906 9.72656C126.078 9.55469 126.281 9.46875 126.516 9.46875C126.75 9.46875 126.949 9.55469 127.113 9.72656C127.285 9.89062 127.371 10.0898 127.371 10.3242C127.371 10.0898 127.453 9.89062 127.617 9.72656C127.789 9.55469 127.992 9.46875 128.227 9.46875C128.461 9.46875 128.66 9.55469 128.824 9.72656C128.996 9.89062 129.082 10.0898 129.082 10.3242V23.6953C129.082 23.9297 128.996 24.1328 128.824 24.3047C128.66 24.4688 128.461 24.5508 128.227 24.5508C127.992 24.5508 127.789 24.4688 127.617 24.3047C127.453 24.1328 127.371 23.9297 127.371 23.6953V25.1484C127.371 25.3828 127.285 25.5859 127.113 25.7578C126.949 25.9219 126.75 26.0039 126.516 26.0039C126.281 26.0039 126.078 25.9219 125.906 25.7578C125.742 25.5859 125.66 25.3828 125.66 25.1484V26.1914C125.66 26.4258 125.574 26.625 125.402 26.7891C125.238 26.9531 125.039 27.0352 124.805 27.0352C124.57 27.0352 124.367 26.9531 124.195 26.7891C124.031 26.625 123.949 26.4258 123.949 26.1914C123.949 26.4258 123.863 26.625 123.691 26.7891C123.527 26.9531 123.328 27.0352 123.094 27.0352C122.859 27.0352 122.656 26.9531 122.484 26.7891C122.32 26.625 122.238 26.4258 122.238 26.1914C122.238 26.4258 122.152 26.625 121.98 26.7891C121.816 26.9531 121.617 27.0352 121.383 27.0352C121.148 27.0352 120.945 26.9531 120.773 26.7891C120.609 26.625 120.527 26.4258 120.527 26.1914C120.527 26.4258 120.445 26.625 120.281 26.7891C120.117 26.9531 119.914 27.0352 119.672 27.0352C119.438 27.0352 119.234 26.9531 119.062 26.7891C118.898 26.625 118.816 26.4258 118.816 26.1914C118.816 26.4258 118.734 26.625 118.57 26.7891C118.406 26.9531 118.207 27.0352 117.973 27.0352C117.73 27.0352 117.527 26.9531 117.363 26.7891C117.199 26.625 117.117 26.4258 117.117 26.1914C117.117 26.4258 117.031 26.625 116.859 26.7891C116.695 26.9531 116.496 27.0352 116.262 27.0352C116.027 27.0352 115.824 26.9531 115.652 26.7891C115.488 26.625 115.406 26.4258 115.406 26.1914C115.406 26.4258 115.32 26.625 115.148 26.7891C114.984 26.9531 114.785 27.0352 114.551 27.0352C114.316 27.0352 114.113 26.9531 113.941 26.7891C113.777 26.625 113.695 26.4258 113.695 26.1914C113.695 26.4258 113.609 26.625 113.438 26.7891C113.273 26.9531 113.074 27.0352 112.84 27.0352C112.605 27.0352 112.402 26.9531 112.23 26.7891C112.066 26.625 111.984 26.4258 111.984 26.1914C111.984 26.4258 111.898 26.625 111.727 26.7891C111.562 26.9531 111.363 27.0352 111.129 27.0352C110.895 27.0352 110.691 26.9531 110.52 26.7891C110.355 26.625 110.273 26.4258 110.273 26.1914V24.75C110.273 24.5156 110.355 24.3164 110.52 24.1523C110.691 23.9805 110.895 23.8945 111.129 23.8945C111.363 23.8945 111.562 23.9805 111.727 24.1523C111.898 24.3164 111.984 24.5156 111.984 24.75V23.6367C111.984 23.4023 112.066 23.2031 112.23 23.0391C112.402 22.8672 112.605 22.7812 112.84 22.7812C113.074 22.7812 113.273 22.8672 113.438 23.0391C113.609 23.2031 113.695 23.4023 113.695 23.6367V12.8203C113.695 12.5859 113.777 12.3867 113.941 12.2227C114.113 12.0508 114.316 11.9648 114.551 11.9648C114.785 11.9648 114.984 12.0508 115.148 12.2227C115.32 12.3867 115.406 12.5859 115.406 12.8203V11.3555C115.406 11.1211 115.488 10.9219 115.652 10.7578C115.824 10.5859 116.027 10.5 116.262 10.5C116.496 10.5 116.695 10.5859 116.859 10.7578C117.031 10.9219 117.117 11.1211 117.117 11.3555V10.3242C117.117 10.0898 117.199 9.89062 117.363 9.72656C117.527 9.55469 117.73 9.46875 117.973 9.46875C118.207 9.46875 118.406 9.55469 118.57 9.72656C118.734 9.89062 118.816 10.0898 118.816 10.3242C118.816 10.0898 118.898 9.89062 119.062 9.72656C119.234 9.55469 119.438 9.46875 119.672 9.46875C119.914 9.46875 120.117 9.55469 120.281 9.72656C120.445 9.89062 120.527 10.0898 120.527 10.3242C120.527 10.0898 120.609 9.89062 120.773 9.72656C120.945 9.55469 121.148 9.46875 121.383 9.46875C121.617 9.46875 121.816 9.55469 121.98 9.72656C122.152 9.89062 122.238 10.0898 122.238 10.3242C122.238 10.0898 122.32 9.89062 122.484 9.72656C122.656 9.55469 122.859 9.46875 123.094 9.46875ZM122.238 12.0352C122.238 12.2695 122.152 12.4727 121.98 12.6445C121.816 12.8086 121.617 12.8906 121.383 12.8906C121.148 12.8906 120.945 12.8086 120.773 12.6445C120.609 12.4727 120.527 12.2695 120.527 12.0352V13.0664C120.527 13.3008 120.445 13.5039 120.281 13.6758C120.117 13.8398 119.914 13.9219 119.672 13.9219C119.438 13.9219 119.234 13.8398 119.062 13.6758C118.898 13.5039 118.816 13.3008 118.816 13.0664V24.4805C118.816 24.2461 118.898 24.0469 119.062 23.8828C119.234 23.7109 119.438 23.625 119.672 23.625C119.914 23.625 120.117 23.7109 120.281 23.8828C120.445 24.0469 120.527 24.2461 120.527 24.4805C120.527 24.2461 120.609 24.0469 120.773 23.8828C120.945 23.7109 121.148 23.625 121.383 23.625C121.617 23.625 121.816 23.7109 121.98 23.8828C122.152 24.0469 122.238 24.2461 122.238 24.4805V23.4375C122.238 23.2031 122.32 23.0039 122.484 22.8398C122.656 22.6758 122.859 22.5938 123.094 22.5938C123.328 22.5938 123.527 22.6758 123.691 22.8398C123.863 23.0039 123.949 23.2031 123.949 23.4375V12.0352C123.949 12.2695 123.863 12.4727 123.691 12.6445C123.527 12.8086 123.328 12.8906 123.094 12.8906C122.859 12.8906 122.656 12.8086 122.484 12.6445C122.32 12.4727 122.238 12.2695 122.238 12.0352ZM138.668 0C138.902 0 139.102 0.0859375 139.266 0.257812C139.43 0.421875 139.512 0.621094 139.512 0.855469C139.512 0.621094 139.594 0.421875 139.758 0.257812C139.93 0.0859375 140.133 0 140.367 0C140.609 0 140.812 0.0859375 140.977 0.257812C141.141 0.421875 141.223 0.621094 141.223 0.855469C141.223 0.621094 141.305 0.421875 141.469 0.257812C141.641 0.0859375 141.844 0 142.078 0C142.312 0 142.512 0.0859375 142.676 0.257812C142.848 0.421875 142.934 0.621094 142.934 0.855469C142.934 0.621094 143.016 0.421875 143.18 0.257812C143.352 0.0859375 143.555 0 143.789 0C144.023 0 144.223 0.0859375 144.387 0.257812C144.559 0.421875 144.645 0.621094 144.645 0.855469C144.645 0.621094 144.727 0.421875 144.891 0.257812C145.062 0.0859375 145.266 0 145.5 0C145.734 0 145.934 0.0859375 146.098 0.257812C146.27 0.421875 146.355 0.621094 146.355 0.855469C146.355 0.621094 146.438 0.421875 146.602 0.257812C146.773 0.0859375 146.977 0 147.211 0C147.445 0 147.645 0.0859375 147.809 0.257812C147.98 0.421875 148.066 0.621094 148.066 0.855469V1.88672C148.066 1.65234 148.148 1.45312 148.312 1.28906C148.484 1.11719 148.688 1.03125 148.922 1.03125C149.156 1.03125 149.355 1.11719 149.52 1.28906C149.691 1.45312 149.777 1.65234 149.777 1.88672V4.44141C149.777 4.67578 149.691 4.87891 149.52 5.05078C149.355 5.21484 149.156 5.29688 148.922 5.29688C148.688 5.29688 148.484 5.21484 148.312 5.05078C148.148 4.87891 148.066 4.67578 148.066 4.44141V3.41016C148.066 3.64453 147.98 3.84766 147.809 4.01953C147.645 4.18359 147.445 4.26562 147.211 4.26562C146.977 4.26562 146.773 4.18359 146.602 4.01953C146.438 3.84766 146.355 3.64453 146.355 3.41016C146.355 3.64453 146.27 3.84766 146.098 4.01953C145.934 4.18359 145.734 4.26562 145.5 4.26562C145.266 4.26562 145.062 4.18359 144.891 4.01953C144.727 3.84766 144.645 3.64453 144.645 3.41016C144.645 3.64453 144.559 3.84766 144.387 4.01953C144.223 4.18359 144.023 4.26562 143.789 4.26562C143.555 4.26562 143.352 4.18359 143.18 4.01953C143.016 3.84766 142.934 3.64453 142.934 3.41016C142.934 3.64453 142.848 3.84766 142.676 4.01953C142.512 4.18359 142.312 4.26562 142.078 4.26562C141.844 4.26562 141.641 4.18359 141.469 4.01953C141.305 3.84766 141.223 3.64453 141.223 3.41016V4.44141C141.223 4.67578 141.141 4.87891 140.977 5.05078C140.812 5.21484 140.609 5.29688 140.367 5.29688C140.133 5.29688 139.93 5.21484 139.758 5.05078C139.594 4.87891 139.512 4.67578 139.512 4.44141V10.2891C139.512 10.0547 139.594 9.85547 139.758 9.69141C139.93 9.51953 140.133 9.43359 140.367 9.43359C140.609 9.43359 140.812 9.51953 140.977 9.69141C141.141 9.85547 141.223 10.0547 141.223 10.2891C141.223 10.0547 141.305 9.85547 141.469 9.69141C141.641 9.51953 141.844 9.43359 142.078 9.43359C142.312 9.43359 142.512 9.51953 142.676 9.69141C142.848 9.85547 142.934 10.0547 142.934 10.2891C142.934 10.0547 143.016 9.85547 143.18 9.69141C143.352 9.51953 143.555 9.43359 143.789 9.43359C144.023 9.43359 144.223 9.51953 144.387 9.69141C144.559 9.85547 144.645 10.0547 144.645 10.2891C144.645 10.0547 144.727 9.85547 144.891 9.69141C145.062 9.51953 145.266 9.43359 145.5 9.43359C145.734 9.43359 145.934 9.51953 146.098 9.69141C146.27 9.85547 146.355 10.0547 146.355 10.2891V12.8438C146.355 13.0781 146.27 13.2812 146.098 13.4531C145.934 13.6172 145.734 13.6992 145.5 13.6992C145.266 13.6992 145.062 13.6172 144.891 13.4531C144.727 13.2812 144.645 13.0781 144.645 12.8438C144.645 13.0781 144.559 13.2812 144.387 13.4531C144.223 13.6172 144.023 13.6992 143.789 13.6992C143.555 13.6992 143.352 13.6172 143.18 13.4531C143.016 13.2812 142.934 13.0781 142.934 12.8438C142.934 13.0781 142.848 13.2812 142.676 13.4531C142.512 13.6172 142.312 13.6992 142.078 13.6992C141.844 13.6992 141.641 13.6172 141.469 13.4531C141.305 13.2812 141.223 13.0781 141.223 12.8438C141.223 13.0781 141.141 13.2812 140.977 13.4531C140.812 13.6172 140.609 13.6992 140.367 13.6992C140.133 13.6992 139.93 13.6172 139.758 13.4531C139.594 13.2812 139.512 13.0781 139.512 12.8438V26.1445C139.512 26.3867 139.43 26.5898 139.266 26.7539C139.102 26.918 138.902 27 138.668 27C138.426 27 138.223 26.918 138.059 26.7539C137.895 26.5898 137.812 26.3867 137.812 26.1445C137.812 26.3867 137.727 26.5898 137.555 26.7539C137.391 26.918 137.191 27 136.957 27C136.723 27 136.52 26.918 136.348 26.7539C136.184 26.582 136.102 26.3789 136.102 26.1445C136.102 26.3789 136.016 26.582 135.844 26.7539C135.68 26.918 135.48 27 135.246 27C135.012 27 134.809 26.918 134.637 26.7539C134.473 26.582 134.391 26.3789 134.391 26.1445C134.391 26.3789 134.305 26.582 134.133 26.7539C133.969 26.918 133.77 27 133.535 27C133.301 27 133.098 26.918 132.926 26.7539C132.762 26.582 132.68 26.3789 132.68 26.1445C132.68 26.3789 132.594 26.582 132.422 26.7539C132.258 26.918 132.059 27 131.824 27C131.59 27 131.387 26.918 131.215 26.7539C131.051 26.582 130.969 26.3789 130.969 26.1445V24.7148C130.969 24.4805 131.051 24.2812 131.215 24.1172C131.387 23.9453 131.59 23.8594 131.824 23.8594C132.059 23.8594 132.258 23.9453 132.422 24.1172C132.594 24.2812 132.68 24.4805 132.68 24.7148V23.5898C132.68 23.3555 132.762 23.1562 132.926 22.9922C133.098 22.8203 133.301 22.7344 133.535 22.7344C133.77 22.7344 133.969 22.8203 134.133 22.9922C134.305 23.1562 134.391 23.3555 134.391 23.5898V12.8438C134.391 13.0781 134.305 13.2812 134.133 13.4531C133.969 13.6172 133.77 13.6992 133.535 13.6992C133.301 13.6992 133.098 13.6172 132.926 13.4531C132.762 13.2812 132.68 13.0781 132.68 12.8438V11.7188C132.68 11.9531 132.594 12.1562 132.422 12.3281C132.258 12.4922 132.059 12.5742 131.824 12.5742C131.59 12.5742 131.387 12.4922 131.215 12.3281C131.051 12.1562 130.969 11.9531 130.969 11.7188V10.2891C130.969 10.0547 131.051 9.85547 131.215 9.69141C131.387 9.51953 131.59 9.43359 131.824 9.43359C132.059 9.43359 132.258 9.51953 132.422 9.69141C132.594 9.85547 132.68 10.0547 132.68 10.2891C132.68 10.0547 132.762 9.85547 132.926 9.69141C133.098 9.51953 133.301 9.43359 133.535 9.43359C133.77 9.43359 133.969 9.51953 134.133 9.69141C134.305 9.85547 134.391 10.0547 134.391 10.2891V3.33984C134.391 3.10547 134.473 2.90625 134.637 2.74219C134.809 2.57031 135.012 2.48438 135.246 2.48438C135.48 2.48438 135.68 2.57031 135.844 2.74219C136.016 2.90625 136.102 3.10547 136.102 3.33984V1.88672C136.102 1.65234 136.184 1.45312 136.348 1.28906C136.52 1.11719 136.723 1.03125 136.957 1.03125C137.191 1.03125 137.391 1.11719 137.555 1.28906C137.727 1.45312 137.812 1.65234 137.812 1.88672V0.855469C137.812 0.621094 137.895 0.421875 138.059 0.257812C138.223 0.0859375 138.426 0 138.668 0ZM159.363 0C159.598 0 159.797 0.0859375 159.961 0.257812C160.125 0.421875 160.207 0.621094 160.207 0.855469C160.207 0.621094 160.289 0.421875 160.453 0.257812C160.625 0.0859375 160.828 0 161.062 0C161.305 0 161.508 0.0859375 161.672 0.257812C161.836 0.421875 161.918 0.621094 161.918 0.855469C161.918 0.621094 162 0.421875 162.164 0.257812C162.336 0.0859375 162.539 0 162.773 0C163.008 0 163.207 0.0859375 163.371 0.257812C163.543 0.421875 163.629 0.621094 163.629 0.855469C163.629 0.621094 163.711 0.421875 163.875 0.257812C164.047 0.0859375 164.25 0 164.484 0C164.719 0 164.918 0.0859375 165.082 0.257812C165.254 0.421875 165.34 0.621094 165.34 0.855469C165.34 0.621094 165.422 0.421875 165.586 0.257812C165.758 0.0859375 165.961 0 166.195 0C166.43 0 166.629 0.0859375 166.793 0.257812C166.965 0.421875 167.051 0.621094 167.051 0.855469C167.051 0.621094 167.133 0.421875 167.297 0.257812C167.469 0.0859375 167.672 0 167.906 0C168.141 0 168.34 0.0859375 168.504 0.257812C168.676 0.421875 168.762 0.621094 168.762 0.855469V1.88672C168.762 1.65234 168.844 1.45312 169.008 1.28906C169.18 1.11719 169.383 1.03125 169.617 1.03125C169.852 1.03125 170.051 1.11719 170.215 1.28906C170.387 1.45312 170.473 1.65234 170.473 1.88672V4.44141C170.473 4.67578 170.387 4.87891 170.215 5.05078C170.051 5.21484 169.852 5.29688 169.617 5.29688C169.383 5.29688 169.18 5.21484 169.008 5.05078C168.844 4.87891 168.762 4.67578 168.762 4.44141V3.41016C168.762 3.64453 168.676 3.84766 168.504 4.01953C168.34 4.18359 168.141 4.26562 167.906 4.26562C167.672 4.26562 167.469 4.18359 167.297 4.01953C167.133 3.84766 167.051 3.64453 167.051 3.41016C167.051 3.64453 166.965 3.84766 166.793 4.01953C166.629 4.18359 166.43 4.26562 166.195 4.26562C165.961 4.26562 165.758 4.18359 165.586 4.01953C165.422 3.84766 165.34 3.64453 165.34 3.41016C165.34 3.64453 165.254 3.84766 165.082 4.01953C164.918 4.18359 164.719 4.26562 164.484 4.26562C164.25 4.26562 164.047 4.18359 163.875 4.01953C163.711 3.84766 163.629 3.64453 163.629 3.41016C163.629 3.64453 163.543 3.84766 163.371 4.01953C163.207 4.18359 163.008 4.26562 162.773 4.26562C162.539 4.26562 162.336 4.18359 162.164 4.01953C162 3.84766 161.918 3.64453 161.918 3.41016V4.44141C161.918 4.67578 161.836 4.87891 161.672 5.05078C161.508 5.21484 161.305 5.29688 161.062 5.29688C160.828 5.29688 160.625 5.21484 160.453 5.05078C160.289 4.87891 160.207 4.67578 160.207 4.44141V10.2891C160.207 10.0547 160.289 9.85547 160.453 9.69141C160.625 9.51953 160.828 9.43359 161.062 9.43359C161.305 9.43359 161.508 9.51953 161.672 9.69141C161.836 9.85547 161.918 10.0547 161.918 10.2891C161.918 10.0547 162 9.85547 162.164 9.69141C162.336 9.51953 162.539 9.43359 162.773 9.43359C163.008 9.43359 163.207 9.51953 163.371 9.69141C163.543 9.85547 163.629 10.0547 163.629 10.2891C163.629 10.0547 163.711 9.85547 163.875 9.69141C164.047 9.51953 164.25 9.43359 164.484 9.43359C164.719 9.43359 164.918 9.51953 165.082 9.69141C165.254 9.85547 165.34 10.0547 165.34 10.2891C165.34 10.0547 165.422 9.85547 165.586 9.69141C165.758 9.51953 165.961 9.43359 166.195 9.43359C166.43 9.43359 166.629 9.51953 166.793 9.69141C166.965 9.85547 167.051 10.0547 167.051 10.2891V12.8438C167.051 13.0781 166.965 13.2812 166.793 13.4531C166.629 13.6172 166.43 13.6992 166.195 13.6992C165.961 13.6992 165.758 13.6172 165.586 13.4531C165.422 13.2812 165.34 13.0781 165.34 12.8438C165.34 13.0781 165.254 13.2812 165.082 13.4531C164.918 13.6172 164.719 13.6992 164.484 13.6992C164.25 13.6992 164.047 13.6172 163.875 13.4531C163.711 13.2812 163.629 13.0781 163.629 12.8438C163.629 13.0781 163.543 13.2812 163.371 13.4531C163.207 13.6172 163.008 13.6992 162.773 13.6992C162.539 13.6992 162.336 13.6172 162.164 13.4531C162 13.2812 161.918 13.0781 161.918 12.8438C161.918 13.0781 161.836 13.2812 161.672 13.4531C161.508 13.6172 161.305 13.6992 161.062 13.6992C160.828 13.6992 160.625 13.6172 160.453 13.4531C160.289 13.2812 160.207 13.0781 160.207 12.8438V26.1445C160.207 26.3867 160.125 26.5898 159.961 26.7539C159.797 26.918 159.598 27 159.363 27C159.121 27 158.918 26.918 158.754 26.7539C158.59 26.5898 158.508 26.3867 158.508 26.1445C158.508 26.3867 158.422 26.5898 158.25 26.7539C158.086 26.918 157.887 27 157.652 27C157.418 27 157.215 26.918 157.043 26.7539C156.879 26.582 156.797 26.3789 156.797 26.1445C156.797 26.3789 156.711 26.582 156.539 26.7539C156.375 26.918 156.176 27 155.941 27C155.707 27 155.504 26.918 155.332 26.7539C155.168 26.582 155.086 26.3789 155.086 26.1445C155.086 26.3789 155 26.582 154.828 26.7539C154.664 26.918 154.465 27 154.23 27C153.996 27 153.793 26.918 153.621 26.7539C153.457 26.582 153.375 26.3789 153.375 26.1445C153.375 26.3789 153.289 26.582 153.117 26.7539C152.953 26.918 152.754 27 152.52 27C152.285 27 152.082 26.918 151.91 26.7539C151.746 26.582 151.664 26.3789 151.664 26.1445V24.7148C151.664 24.4805 151.746 24.2812 151.91 24.1172C152.082 23.9453 152.285 23.8594 152.52 23.8594C152.754 23.8594 152.953 23.9453 153.117 24.1172C153.289 24.2812 153.375 24.4805 153.375 24.7148V23.5898C153.375 23.3555 153.457 23.1562 153.621 22.9922C153.793 22.8203 153.996 22.7344 154.23 22.7344C154.465 22.7344 154.664 22.8203 154.828 22.9922C155 23.1562 155.086 23.3555 155.086 23.5898V12.8438C155.086 13.0781 155 13.2812 154.828 13.4531C154.664 13.6172 154.465 13.6992 154.23 13.6992C153.996 13.6992 153.793 13.6172 153.621 13.4531C153.457 13.2812 153.375 13.0781 153.375 12.8438V11.7188C153.375 11.9531 153.289 12.1562 153.117 12.3281C152.953 12.4922 152.754 12.5742 152.52 12.5742C152.285 12.5742 152.082 12.4922 151.91 12.3281C151.746 12.1562 151.664 11.9531 151.664 11.7188V10.2891C151.664 10.0547 151.746 9.85547 151.91 9.69141C152.082 9.51953 152.285 9.43359 152.52 9.43359C152.754 9.43359 152.953 9.51953 153.117 9.69141C153.289 9.85547 153.375 10.0547 153.375 10.2891C153.375 10.0547 153.457 9.85547 153.621 9.69141C153.793 9.51953 153.996 9.43359 154.23 9.43359C154.465 9.43359 154.664 9.51953 154.828 9.69141C155 9.85547 155.086 10.0547 155.086 10.2891V3.33984C155.086 3.10547 155.168 2.90625 155.332 2.74219C155.504 2.57031 155.707 2.48438 155.941 2.48438C156.176 2.48438 156.375 2.57031 156.539 2.74219C156.711 2.90625 156.797 3.10547 156.797 3.33984V1.88672C156.797 1.65234 156.879 1.45312 157.043 1.28906C157.215 1.11719 157.418 1.03125 157.652 1.03125C157.887 1.03125 158.086 1.11719 158.25 1.28906C158.422 1.45312 158.508 1.65234 158.508 1.88672V0.855469C158.508 0.621094 158.59 0.421875 158.754 0.257812C158.918 0.0859375 159.121 0 159.363 0ZM175.535 25.9688C175.301 25.9688 175.098 25.8867 174.926 25.7227C174.762 25.5508 174.68 25.3477 174.68 25.1133V23.6602C174.68 23.8945 174.594 24.0977 174.422 24.2695C174.258 24.4336 174.059 24.5156 173.824 24.5156C173.59 24.5156 173.387 24.4336 173.215 24.2695C173.051 24.0977 172.969 23.8945 172.969 23.6602V12.8438C172.969 13.0781 172.883 13.2812 172.711 13.4531C172.547 13.6172 172.348 13.6992 172.113 13.6992C171.879 13.6992 171.676 13.6172 171.504 13.4531C171.34 13.2812 171.258 13.0781 171.258 12.8438V11.7188C171.258 11.9531 171.172 12.1562 171 12.3281C170.836 12.4922 170.637 12.5742 170.402 12.5742C170.168 12.5742 169.965 12.4922 169.793 12.3281C169.629 12.1562 169.547 11.9531 169.547 11.7188V10.2891C169.547 10.0547 169.629 9.85547 169.793 9.69141C169.965 9.51953 170.168 9.43359 170.402 9.43359C170.637 9.43359 170.836 9.51953 171 9.69141C171.172 9.85547 171.258 10.0547 171.258 10.2891C171.258 10.0547 171.34 9.85547 171.504 9.69141C171.676 9.51953 171.879 9.43359 172.113 9.43359C172.348 9.43359 172.547 9.51953 172.711 9.69141C172.883 9.85547 172.969 10.0547 172.969 10.2891C172.969 10.0547 173.051 9.85547 173.215 9.69141C173.387 9.51953 173.59 9.43359 173.824 9.43359C174.059 9.43359 174.258 9.51953 174.422 9.69141C174.594 9.85547 174.68 10.0547 174.68 10.2891C174.68 10.0547 174.762 9.85547 174.926 9.69141C175.098 9.51953 175.301 9.43359 175.535 9.43359C175.77 9.43359 175.969 9.51953 176.133 9.69141C176.305 9.85547 176.391 10.0547 176.391 10.2891C176.391 10.0547 176.473 9.85547 176.637 9.69141C176.801 9.51953 177.004 9.43359 177.246 9.43359C177.48 9.43359 177.68 9.51953 177.844 9.69141C178.008 9.85547 178.09 10.0547 178.09 10.2891C178.09 10.0547 178.172 9.85547 178.336 9.69141C178.508 9.51953 178.711 9.43359 178.945 9.43359C179.188 9.43359 179.391 9.51953 179.555 9.69141C179.719 9.85547 179.801 10.0547 179.801 10.2891C179.801 10.0547 179.883 9.85547 180.047 9.69141C180.219 9.51953 180.422 9.43359 180.656 9.43359C180.891 9.43359 181.09 9.51953 181.254 9.69141C181.426 9.85547 181.512 10.0547 181.512 10.2891C181.512 10.0547 181.594 9.85547 181.758 9.69141C181.93 9.51953 182.133 9.43359 182.367 9.43359C182.602 9.43359 182.801 9.51953 182.965 9.69141C183.137 9.85547 183.223 10.0547 183.223 10.2891C183.223 10.0547 183.305 9.85547 183.469 9.69141C183.641 9.51953 183.844 9.43359 184.078 9.43359C184.312 9.43359 184.512 9.51953 184.676 9.69141C184.848 9.85547 184.934 10.0547 184.934 10.2891V11.3203C184.934 11.0859 185.016 10.8867 185.18 10.7227C185.352 10.5508 185.555 10.4648 185.789 10.4648C186.023 10.4648 186.223 10.5508 186.387 10.7227C186.559 10.8867 186.645 11.0859 186.645 11.3203V12.7852C186.645 12.5508 186.727 12.3516 186.891 12.1875C187.062 12.0156 187.266 11.9297 187.5 11.9297C187.734 11.9297 187.934 12.0156 188.098 12.1875C188.27 12.3516 188.355 12.5508 188.355 12.7852V17.2266C188.355 17.4609 188.27 17.6641 188.098 17.8359C187.934 18 187.734 18.082 187.5 18.082C187.266 18.082 187.062 18 186.891 17.8359C186.727 17.6641 186.645 17.4609 186.645 17.2266V18.6797C186.645 18.9141 186.559 19.1172 186.387 19.2891C186.223 19.4531 186.023 19.5352 185.789 19.5352C185.555 19.5352 185.352 19.4531 185.18 19.2891C185.016 19.1172 184.934 18.9141 184.934 18.6797V19.7227C184.934 19.957 184.848 20.1602 184.676 20.332C184.512 20.4961 184.312 20.5781 184.078 20.5781C183.844 20.5781 183.641 20.4961 183.469 20.332C183.305 20.1602 183.223 19.957 183.223 19.7227C183.223 19.957 183.137 20.1602 182.965 20.332C182.801 20.4961 182.602 20.5781 182.367 20.5781C182.133 20.5781 181.93 20.4961 181.758 20.332C181.594 20.1602 181.512 19.957 181.512 19.7227C181.512 19.957 181.426 20.1602 181.254 20.332C181.09 20.4961 180.891 20.5781 180.656 20.5781C180.422 20.5781 180.219 20.4961 180.047 20.332C179.883 20.1602 179.801 19.957 179.801 19.7227C179.801 19.957 179.719 20.1602 179.555 20.332C179.391 20.4961 179.188 20.5781 178.945 20.5781C178.711 20.5781 178.508 20.4961 178.336 20.332C178.172 20.1602 178.09 19.957 178.09 19.7227V22.5586C178.09 22.3242 178.172 22.125 178.336 21.9609C178.508 21.7891 178.711 21.7031 178.945 21.7031C179.188 21.7031 179.391 21.7891 179.555 21.9609C179.719 22.125 179.801 22.3242 179.801 22.5586V23.5898C179.801 23.3555 179.883 23.1562 180.047 22.9922C180.219 22.8203 180.422 22.7344 180.656 22.7344C180.891 22.7344 181.09 22.8203 181.254 22.9922C181.426 23.1562 181.512 23.3555 181.512 23.5898C181.512 23.3555 181.594 23.1562 181.758 22.9922C181.93 22.8203 182.133 22.7344 182.367 22.7344C182.602 22.7344 182.801 22.8203 182.965 22.9922C183.137 23.1562 183.223 23.3555 183.223 23.5898C183.223 23.3555 183.305 23.1562 183.469 22.9922C183.641 22.8203 183.844 22.7344 184.078 22.7344C184.312 22.7344 184.512 22.8203 184.676 22.9922C184.848 23.1562 184.934 23.3555 184.934 23.5898C184.934 23.3555 185.016 23.1562 185.18 22.9922C185.352 22.8203 185.555 22.7344 185.789 22.7344C186.023 22.7344 186.223 22.8203 186.387 22.9922C186.559 23.1562 186.645 23.3555 186.645 23.5898V22.5586C186.645 22.3242 186.727 22.125 186.891 21.9609C187.062 21.7891 187.266 21.7031 187.5 21.7031C187.734 21.7031 187.934 21.7891 188.098 21.9609C188.27 22.125 188.355 22.3242 188.355 22.5586V25.1133C188.355 25.3477 188.27 25.5508 188.098 25.7227C187.934 25.8867 187.734 25.9688 187.5 25.9688C187.266 25.9688 187.062 25.8867 186.891 25.7227C186.727 25.5508 186.645 25.3477 186.645 25.1133V26.1445C186.645 26.3789 186.559 26.582 186.387 26.7539C186.223 26.918 186.023 27 185.789 27C185.555 27 185.352 26.918 185.18 26.7539C185.016 26.582 184.934 26.3789 184.934 26.1445C184.934 26.3789 184.848 26.582 184.676 26.7539C184.512 26.918 184.312 27 184.078 27C183.844 27 183.641 26.918 183.469 26.7539C183.305 26.582 183.223 26.3789 183.223 26.1445C183.223 26.3789 183.137 26.582 182.965 26.7539C182.801 26.918 182.602 27 182.367 27C182.133 27 181.93 26.918 181.758 26.7539C181.594 26.582 181.512 26.3789 181.512 26.1445C181.512 26.3789 181.426 26.582 181.254 26.7539C181.09 26.918 180.891 27 180.656 27C180.422 27 180.219 26.918 180.047 26.7539C179.883 26.582 179.801 26.3789 179.801 26.1445C179.801 26.3789 179.719 26.582 179.555 26.7539C179.391 26.918 179.188 27 178.945 27C178.711 27 178.508 26.918 178.336 26.7539C178.172 26.582 178.09 26.3789 178.09 26.1445C178.09 26.3789 178.008 26.582 177.844 26.7539C177.68 26.918 177.48 27 177.246 27C177.004 27 176.801 26.918 176.637 26.7539C176.473 26.582 176.391 26.3789 176.391 26.1445V25.1133C176.391 25.3477 176.305 25.5508 176.133 25.7227C175.969 25.8867 175.77 25.9688 175.535 25.9688ZM178.09 17.168C178.09 16.9336 178.172 16.7344 178.336 16.5703C178.508 16.3984 178.711 16.3125 178.945 16.3125C179.18 16.3125 179.379 16.3984 179.543 16.5703C179.715 16.7344 179.801 16.9336 179.801 17.168C179.801 16.9336 179.883 16.7344 180.047 16.5703C180.219 16.3984 180.422 16.3125 180.656 16.3125C180.891 16.3125 181.09 16.3984 181.254 16.5703C181.426 16.7344 181.512 16.9336 181.512 17.168V16.1367C181.512 15.8945 181.594 15.6914 181.758 15.5273C181.93 15.3633 182.133 15.2812 182.367 15.2812C182.602 15.2812 182.801 15.3633 182.965 15.5273C183.137 15.6914 183.223 15.8945 183.223 16.1367V13.875C183.223 14.1094 183.137 14.3125 182.965 14.4844C182.801 14.6484 182.602 14.7305 182.367 14.7305C182.133 14.7305 181.93 14.6484 181.758 14.4844C181.594 14.3125 181.512 14.1094 181.512 13.875V12.8438C181.512 13.0781 181.426 13.2812 181.254 13.4531C181.09 13.6172 180.891 13.6992 180.656 13.6992C180.422 13.6992 180.219 13.6172 180.047 13.4531C179.883 13.2812 179.801 13.0781 179.801 12.8438C179.801 13.0781 179.715 13.2812 179.543 13.4531C179.379 13.6172 179.18 13.6992 178.945 13.6992C178.711 13.6992 178.508 13.6172 178.336 13.4531C178.172 13.2812 178.09 13.0781 178.09 12.8438V17.168ZM196.23 25.9688C195.996 25.9688 195.793 25.8867 195.621 25.7227C195.457 25.5508 195.375 25.3477 195.375 25.1133V23.6602C195.375 23.8945 195.289 24.0977 195.117 24.2695C194.953 24.4336 194.754 24.5156 194.52 24.5156C194.285 24.5156 194.082 24.4336 193.91 24.2695C193.746 24.0977 193.664 23.8945 193.664 23.6602V12.8438C193.664 13.0781 193.578 13.2812 193.406 13.4531C193.242 13.6172 193.043 13.6992 192.809 13.6992C192.574 13.6992 192.371 13.6172 192.199 13.4531C192.035 13.2812 191.953 13.0781 191.953 12.8438V11.7188C191.953 11.9531 191.867 12.1562 191.695 12.3281C191.531 12.4922 191.332 12.5742 191.098 12.5742C190.863 12.5742 190.66 12.4922 190.488 12.3281C190.324 12.1562 190.242 11.9531 190.242 11.7188V10.2891C190.242 10.0547 190.324 9.85547 190.488 9.69141C190.66 9.51953 190.863 9.43359 191.098 9.43359C191.332 9.43359 191.531 9.51953 191.695 9.69141C191.867 9.85547 191.953 10.0547 191.953 10.2891C191.953 10.0547 192.035 9.85547 192.199 9.69141C192.371 9.51953 192.574 9.43359 192.809 9.43359C193.043 9.43359 193.242 9.51953 193.406 9.69141C193.578 9.85547 193.664 10.0547 193.664 10.2891C193.664 10.0547 193.746 9.85547 193.91 9.69141C194.082 9.51953 194.285 9.43359 194.52 9.43359C194.754 9.43359 194.953 9.51953 195.117 9.69141C195.289 9.85547 195.375 10.0547 195.375 10.2891C195.375 10.0547 195.457 9.85547 195.621 9.69141C195.793 9.51953 195.996 9.43359 196.23 9.43359C196.465 9.43359 196.664 9.51953 196.828 9.69141C197 9.85547 197.086 10.0547 197.086 10.2891C197.086 10.0547 197.168 9.85547 197.332 9.69141C197.496 9.51953 197.699 9.43359 197.941 9.43359C198.176 9.43359 198.375 9.51953 198.539 9.69141C198.703 9.85547 198.785 10.0547 198.785 10.2891C198.785 10.0547 198.867 9.85547 199.031 9.69141C199.203 9.51953 199.406 9.43359 199.641 9.43359C199.883 9.43359 200.086 9.51953 200.25 9.69141C200.414 9.85547 200.496 10.0547 200.496 10.2891C200.496 10.0547 200.578 9.85547 200.742 9.69141C200.914 9.51953 201.117 9.43359 201.352 9.43359C201.586 9.43359 201.785 9.51953 201.949 9.69141C202.121 9.85547 202.207 10.0547 202.207 10.2891C202.207 10.0547 202.289 9.85547 202.453 9.69141C202.625 9.51953 202.828 9.43359 203.062 9.43359C203.297 9.43359 203.496 9.51953 203.66 9.69141C203.832 9.85547 203.918 10.0547 203.918 10.2891C203.918 10.0547 204 9.85547 204.164 9.69141C204.336 9.51953 204.539 9.43359 204.773 9.43359C205.008 9.43359 205.207 9.51953 205.371 9.69141C205.543 9.85547 205.629 10.0547 205.629 10.2891V11.3203C205.629 11.0859 205.711 10.8867 205.875 10.7227C206.047 10.5508 206.25 10.4648 206.484 10.4648C206.719 10.4648 206.918 10.5508 207.082 10.7227C207.254 10.8867 207.34 11.0859 207.34 11.3203V12.7852C207.34 12.5508 207.422 12.3516 207.586 12.1875C207.758 12.0156 207.961 11.9297 208.195 11.9297C208.43 11.9297 208.629 12.0156 208.793 12.1875C208.965 12.3516 209.051 12.5508 209.051 12.7852V17.2266C209.051 17.4609 208.965 17.6641 208.793 17.8359C208.629 18 208.43 18.082 208.195 18.082C207.961 18.082 207.758 18 207.586 17.8359C207.422 17.6641 207.34 17.4609 207.34 17.2266V18.6797C207.34 18.9141 207.254 19.1172 207.082 19.2891C206.918 19.4531 206.719 19.5352 206.484 19.5352C206.25 19.5352 206.047 19.4531 205.875 19.2891C205.711 19.1172 205.629 18.9141 205.629 18.6797V19.7227C205.629 19.957 205.543 20.1602 205.371 20.332C205.207 20.4961 205.008 20.5781 204.773 20.5781C204.539 20.5781 204.336 20.4961 204.164 20.332C204 20.1602 203.918 19.957 203.918 19.7227C203.918 19.957 203.832 20.1602 203.66 20.332C203.496 20.4961 203.297 20.5781 203.062 20.5781C202.828 20.5781 202.625 20.4961 202.453 20.332C202.289 20.1602 202.207 19.957 202.207 19.7227C202.207 19.957 202.121 20.1602 201.949 20.332C201.785 20.4961 201.586 20.5781 201.352 20.5781C201.117 20.5781 200.914 20.4961 200.742 20.332C200.578 20.1602 200.496 19.957 200.496 19.7227C200.496 19.957 200.414 20.1602 200.25 20.332C200.086 20.4961 199.883 20.5781 199.641 20.5781C199.406 20.5781 199.203 20.4961 199.031 20.332C198.867 20.1602 198.785 19.957 198.785 19.7227V22.5586C198.785 22.3242 198.867 22.125 199.031 21.9609C199.203 21.7891 199.406 21.7031 199.641 21.7031C199.883 21.7031 200.086 21.7891 200.25 21.9609C200.414 22.125 200.496 22.3242 200.496 22.5586V23.5898C200.496 23.3555 200.578 23.1562 200.742 22.9922C200.914 22.8203 201.117 22.7344 201.352 22.7344C201.586 22.7344 201.785 22.8203 201.949 22.9922C202.121 23.1562 202.207 23.3555 202.207 23.5898C202.207 23.3555 202.289 23.1562 202.453 22.9922C202.625 22.8203 202.828 22.7344 203.062 22.7344C203.297 22.7344 203.496 22.8203 203.66 22.9922C203.832 23.1562 203.918 23.3555 203.918 23.5898C203.918 23.3555 204 23.1562 204.164 22.9922C204.336 22.8203 204.539 22.7344 204.773 22.7344C205.008 22.7344 205.207 22.8203 205.371 22.9922C205.543 23.1562 205.629 23.3555 205.629 23.5898C205.629 23.3555 205.711 23.1562 205.875 22.9922C206.047 22.8203 206.25 22.7344 206.484 22.7344C206.719 22.7344 206.918 22.8203 207.082 22.9922C207.254 23.1562 207.34 23.3555 207.34 23.5898V22.5586C207.34 22.3242 207.422 22.125 207.586 21.9609C207.758 21.7891 207.961 21.7031 208.195 21.7031C208.43 21.7031 208.629 21.7891 208.793 21.9609C208.965 22.125 209.051 22.3242 209.051 22.5586V25.1133C209.051 25.3477 208.965 25.5508 208.793 25.7227C208.629 25.8867 208.43 25.9688 208.195 25.9688C207.961 25.9688 207.758 25.8867 207.586 25.7227C207.422 25.5508 207.34 25.3477 207.34 25.1133V26.1445C207.34 26.3789 207.254 26.582 207.082 26.7539C206.918 26.918 206.719 27 206.484 27C206.25 27 206.047 26.918 205.875 26.7539C205.711 26.582 205.629 26.3789 205.629 26.1445C205.629 26.3789 205.543 26.582 205.371 26.7539C205.207 26.918 205.008 27 204.773 27C204.539 27 204.336 26.918 204.164 26.7539C204 26.582 203.918 26.3789 203.918 26.1445C203.918 26.3789 203.832 26.582 203.66 26.7539C203.496 26.918 203.297 27 203.062 27C202.828 27 202.625 26.918 202.453 26.7539C202.289 26.582 202.207 26.3789 202.207 26.1445C202.207 26.3789 202.121 26.582 201.949 26.7539C201.785 26.918 201.586 27 201.352 27C201.117 27 200.914 26.918 200.742 26.7539C200.578 26.582 200.496 26.3789 200.496 26.1445C200.496 26.3789 200.414 26.582 200.25 26.7539C200.086 26.918 199.883 27 199.641 27C199.406 27 199.203 26.918 199.031 26.7539C198.867 26.582 198.785 26.3789 198.785 26.1445C198.785 26.3789 198.703 26.582 198.539 26.7539C198.375 26.918 198.176 27 197.941 27C197.699 27 197.496 26.918 197.332 26.7539C197.168 26.582 197.086 26.3789 197.086 26.1445V25.1133C197.086 25.3477 197 25.5508 196.828 25.7227C196.664 25.8867 196.465 25.9688 196.23 25.9688ZM198.785 17.168C198.785 16.9336 198.867 16.7344 199.031 16.5703C199.203 16.3984 199.406 16.3125 199.641 16.3125C199.875 16.3125 200.074 16.3984 200.238 16.5703C200.41 16.7344 200.496 16.9336 200.496 17.168C200.496 16.9336 200.578 16.7344 200.742 16.5703C200.914 16.3984 201.117 16.3125 201.352 16.3125C201.586 16.3125 201.785 16.3984 201.949 16.5703C202.121 16.7344 202.207 16.9336 202.207 17.168V16.1367C202.207 15.8945 202.289 15.6914 202.453 15.5273C202.625 15.3633 202.828 15.2812 203.062 15.2812C203.297 15.2812 203.496 15.3633 203.66 15.5273C203.832 15.6914 203.918 15.8945 203.918 16.1367V13.875C203.918 14.1094 203.832 14.3125 203.66 14.4844C203.496 14.6484 203.297 14.7305 203.062 14.7305C202.828 14.7305 202.625 14.6484 202.453 14.4844C202.289 14.3125 202.207 14.1094 202.207 13.875V12.8438C202.207 13.0781 202.121 13.2812 201.949 13.4531C201.785 13.6172 201.586 13.6992 201.352 13.6992C201.117 13.6992 200.914 13.6172 200.742 13.4531C200.578 13.2812 200.496 13.0781 200.496 12.8438C200.496 13.0781 200.41 13.2812 200.238 13.4531C200.074 13.6172 199.875 13.6992 199.641 13.6992C199.406 13.6992 199.203 13.6172 199.031 13.4531C198.867 13.2812 198.785 13.0781 198.785 12.8438V17.168ZM212.637 26.1328C212.637 26.3672 212.551 26.5664 212.379 26.7305C212.215 26.8945 212.016 26.9766 211.781 26.9766C211.547 26.9766 211.348 26.8945 211.184 26.7305C211.02 26.5664 210.938 26.3672 210.938 26.1328V22.7461C210.938 22.5117 211.02 22.3125 211.184 22.1484C211.348 21.9766 211.547 21.8906 211.781 21.8906C212.016 21.8906 212.215 21.9766 212.379 22.1484C212.551 22.3125 212.637 22.5117 212.637 22.7461C212.637 22.5117 212.719 22.3125 212.883 22.1484C213.047 21.9766 213.246 21.8906 213.48 21.8906C213.715 21.8906 213.914 21.9766 214.078 22.1484C214.242 22.3125 214.324 22.5117 214.324 22.7461C214.324 22.5117 214.406 22.3125 214.57 22.1484C214.742 21.9766 214.945 21.8906 215.18 21.8906C215.406 21.8906 215.602 21.9766 215.766 22.1484C215.938 22.3125 216.023 22.5117 216.023 22.7461C216.023 22.5117 216.105 22.3125 216.27 22.1484C216.434 21.9766 216.633 21.8906 216.867 21.8906C217.102 21.8906 217.301 21.9766 217.465 22.1484C217.637 22.3125 217.723 22.5117 217.723 22.7461C217.723 22.5117 217.805 22.3125 217.969 22.1484C218.133 21.9766 218.332 21.8906 218.566 21.8906C218.801 21.8906 219 21.9766 219.164 22.1484C219.328 22.3125 219.41 22.5117 219.41 22.7461C219.41 22.5117 219.492 22.3125 219.656 22.1484C219.828 21.9766 220.031 21.8906 220.266 21.8906C220.492 21.8906 220.688 21.9766 220.852 22.1484C221.023 22.3125 221.109 22.5117 221.109 22.7461C221.109 22.5117 221.191 22.3125 221.355 22.1484C221.52 21.9766 221.719 21.8906 221.953 21.8906C222.188 21.8906 222.387 21.9766 222.551 22.1484C222.723 22.3125 222.809 22.5117 222.809 22.7461V26.1328C222.809 26.3672 222.723 26.5664 222.551 26.7305C222.387 26.8945 222.188 26.9766 221.953 26.9766C221.719 26.9766 221.52 26.8945 221.355 26.7305C221.191 26.5664 221.109 26.3672 221.109 26.1328C221.109 26.3672 221.023 26.5664 220.852 26.7305C220.688 26.8945 220.492 26.9766 220.266 26.9766C220.031 26.9766 219.828 26.8945 219.656 26.7305C219.492 26.5664 219.41 26.3672 219.41 26.1328C219.41 26.3672 219.328 26.5664 219.164 26.7305C219 26.8945 218.801 26.9766 218.566 26.9766C218.332 26.9766 218.133 26.8945 217.969 26.7305C217.805 26.5664 217.723 26.3672 217.723 26.1328C217.723 26.3672 217.637 26.5664 217.465 26.7305C217.301 26.8945 217.102 26.9766 216.867 26.9766C216.633 26.9766 216.434 26.8945 216.27 26.7305C216.105 26.5664 216.023 26.3672 216.023 26.1328C216.023 26.3672 215.938 26.5664 215.766 26.7305C215.602 26.8945 215.406 26.9766 215.18 26.9766C214.945 26.9766 214.742 26.8945 214.57 26.7305C214.406 26.5664 214.324 26.3672 214.324 26.1328C214.324 26.3672 214.242 26.5664 214.078 26.7305C213.914 26.8945 213.715 26.9766 213.48 26.9766C213.246 26.9766 213.047 26.8945 212.883 26.7305C212.719 26.5664 212.637 26.3672 212.637 26.1328Z" fill="white"/>
</svg>
