<svg width="35" height="37" viewBox="0 0 35 37" fill="none" xmlns="http://www.w3.org/2000/svg">
<path d="M30.625 15.125C30.625 25.3333 17.5 34.0833 17.5 34.0833C17.5 34.0833 4.375 25.3333 4.375 15.125C4.375 11.644 5.75781 8.30564 8.21922 5.84422C10.6806 3.38281 14.019 2 17.5 2C20.981 2 24.3194 3.38281 26.7808 5.84422C29.2422 8.30564 30.625 11.644 30.625 15.125Z" stroke="#1E1E1E" stroke-width="4" stroke-linecap="round" stroke-linejoin="round"/>
<path d="M17.5 19.5C19.9162 19.5 21.875 17.5412 21.875 15.125C21.875 12.7088 19.9162 10.75 17.5 10.75C15.0838 10.75 13.125 12.7088 13.125 15.125C13.125 17.5412 15.0838 19.5 17.5 19.5Z" stroke="#1E1E1E" stroke-width="4" stroke-linecap="round" stroke-linejoin="round"/>
</svg>
